<svg width="450" height="220" viewBox="0 0 450 220" fill="none" xmlns="http://www.w3.org/2000/svg" role="img" aria-label="Suvam Paul&#x27;s GitHub contribution stats">
  <rect width="450" height="220" rx="14" fill="#0d1117"/>
  <rect x="0.5" y="0.5" width="449" height="219" rx="13.5" fill="#111827" stroke="#243244"/>
  
  <text x="24" y="34" fill="#e5eef8" font-family="Segoe UI, Arial, sans-serif" font-size="19" font-weight="700">GitHub Impact</text>
  <text x="24" y="53" fill="#8b9aab" font-family="Segoe UI, Arial, sans-serif" font-size="12">Contribution-focused activity, updated by workflow</text>
  <rect x="24" y="70" width="186" height="52" rx="10" fill="#0f172a" stroke="#263449"/><circle cx="46" cy="96" r="8" fill="#38bdf8"/><text x="66" y="92" fill="#b9c7d6" font-family="Segoe UI, Arial, sans-serif" font-size="12">Total Contributions</text><text x="66" y="112" fill="#e5eef8" font-family="Segoe UI, Arial, sans-serif" font-size="18" font-weight="700">2.3k</text><rect x="240" y="70" width="186" height="52" rx="10" fill="#0f172a" stroke="#263449"/><circle cx="262" cy="96" r="8" fill="#22c55e"/><text x="282" y="92" fill="#b9c7d6" font-family="Segoe UI, Arial, sans-serif" font-size="12">Pull Requests</text><text x="282" y="112" fill="#e5eef8" font-family="Segoe UI, Arial, sans-serif" font-size="18" font-weight="700">118</text><rect x="24" y="142" width="186" height="52" rx="10" fill="#0f172a" stroke="#263449"/><circle cx="46" cy="168" r="8" fill="#a78bfa"/><text x="66" y="164" fill="#b9c7d6" font-family="Segoe UI, Arial, sans-serif" font-size="12">Contributed Projects</text><text x="66" y="184" fill="#e5eef8" font-family="Segoe UI, Arial, sans-serif" font-size="18" font-weight="700">105</text><rect x="240" y="142" width="186" height="52" rx="10" fill="#0f172a" stroke="#263449"/><circle cx="262" cy="168" r="8" fill="#f97316"/><text x="282" y="164" fill="#b9c7d6" font-family="Segoe UI, Arial, sans-serif" font-size="12">Code Reviews</text><text x="282" y="184" fill="#e5eef8" font-family="Segoe UI, Arial, sans-serif" font-size="18" font-weight="700">103</text>

</svg>
