<svg width="450" height="250" viewBox="0 0 450 250" fill="none" xmlns="http://www.w3.org/2000/svg" role="img" aria-label="Suvam Paul&#x27;s top programming languages">
  <rect width="450" height="250" rx="14" fill="#0d1117"/>
  <rect x="0.5" y="0.5" width="449" height="249" rx="13.5" fill="#111827" stroke="#243244"/>
  
  <text x="24" y="34" fill="#e5eef8" font-family="Segoe UI, Arial, sans-serif" font-size="19" font-weight="700">Top Languages</text>
  <text x="24" y="53" fill="#8b9aab" font-family="Segoe UI, Arial, sans-serif" font-size="12">Calculated from accessible repositories</text>
  <rect x="24" y="51" width="25" height="25" rx="6" fill="#3776ab"/><text x="36.5" y="68" fill="#ffffff" font-family="Segoe UI, Arial, sans-serif" font-size="9" font-weight="800" text-anchor="middle">Py</text><text x="60" y="68" fill="#e5eef8" font-family="Segoe UI, Arial, sans-serif" font-size="13" font-weight="600">Python</text><text x="382" y="68" fill="#b9c7d6" font-family="Segoe UI, Arial, sans-serif" font-size="12" text-anchor="end">56.0%</text><rect x="60" y="77" width="230" height="7" rx="3.5" fill="#1f2937"/><rect x="60" y="77" width="129" height="7" rx="3.5" fill="#3776ab"/><rect x="24" y="80" width="25" height="25" rx="6" fill="#e34f26"/><text x="36.5" y="97" fill="#ffffff" font-family="Segoe UI, Arial, sans-serif" font-size="9" font-weight="800" text-anchor="middle">5</text><text x="60" y="97" fill="#e5eef8" font-family="Segoe UI, Arial, sans-serif" font-size="13" font-weight="600">HTML</text><text x="382" y="97" fill="#b9c7d6" font-family="Segoe UI, Arial, sans-serif" font-size="12" text-anchor="end">15.6%</text><rect x="60" y="106" width="230" height="7" rx="3.5" fill="#1f2937"/><rect x="60" y="106" width="36" height="7" rx="3.5" fill="#e34f26"/><rect x="24" y="109" width="25" height="25" rx="6" fill="#3178c6"/><text x="36.5" y="126" fill="#ffffff" font-family="Segoe UI, Arial, sans-serif" font-size="9" font-weight="800" text-anchor="middle">TS</text><text x="60" y="126" fill="#e5eef8" font-family="Segoe UI, Arial, sans-serif" font-size="13" font-weight="600">TypeScript</text><text x="382" y="126" fill="#b9c7d6" font-family="Segoe UI, Arial, sans-serif" font-size="12" text-anchor="end">11.0%</text><rect x="60" y="135" width="230" height="7" rx="3.5" fill="#1f2937"/><rect x="60" y="135" width="25" height="7" rx="3.5" fill="#3178c6"/><rect x="24" y="138" width="25" height="25" rx="6" fill="#f7df1e"/><text x="36.5" y="155" fill="#101820" font-family="Segoe UI, Arial, sans-serif" font-size="9" font-weight="800" text-anchor="middle">JS</text><text x="60" y="155" fill="#e5eef8" font-family="Segoe UI, Arial, sans-serif" font-size="13" font-weight="600">JavaScript</text><text x="382" y="155" fill="#b9c7d6" font-family="Segoe UI, Arial, sans-serif" font-size="12" text-anchor="end">8.1%</text><rect x="60" y="164" width="230" height="7" rx="3.5" fill="#1f2937"/><rect x="60" y="164" width="19" height="7" rx="3.5" fill="#f7df1e"/><rect x="24" y="167" width="25" height="25" rx="6" fill="#f37626"/><text x="36.5" y="184" fill="#ffffff" font-family="Segoe UI, Arial, sans-serif" font-size="9" font-weight="800" text-anchor="middle">Ip</text><text x="60" y="184" fill="#e5eef8" font-family="Segoe UI, Arial, sans-serif" font-size="13" font-weight="600">Jupyter Notebook</text><text x="382" y="184" fill="#b9c7d6" font-family="Segoe UI, Arial, sans-serif" font-size="12" text-anchor="end">6.1%</text><rect x="60" y="193" width="230" height="7" rx="3.5" fill="#1f2937"/><rect x="60" y="193" width="14" height="7" rx="3.5" fill="#f37626"/><rect x="24" y="196" width="25" height="25" rx="6" fill="#1572b6"/><text x="36.5" y="213" fill="#ffffff" font-family="Segoe UI, Arial, sans-serif" font-size="9" font-weight="800" text-anchor="middle">3</text><text x="60" y="213" fill="#e5eef8" font-family="Segoe UI, Arial, sans-serif" font-size="13" font-weight="600">CSS</text><text x="382" y="213" fill="#b9c7d6" font-family="Segoe UI, Arial, sans-serif" font-size="12" text-anchor="end">3.1%</text><rect x="60" y="222" width="230" height="7" rx="3.5" fill="#1f2937"/><rect x="60" y="222" width="7" height="7" rx="3.5" fill="#1572b6"/>

</svg>
